<svg xmlns="http://www.w3.org/2000/svg" xmlns:xlink="http://www.w3.org/1999/xlink" version="1.1" x="0px" y="0px" viewBox="0 0 100 100" enable-background="new 0 0 100 100" xml:space="preserve"><g><polygon points="37.891,47.086 35.739,50.814 37.891,54.542 42.196,54.542 44.349,50.814 42.196,47.086  "></polygon><polygon points="57.805,47.086 55.651,50.814 57.805,54.542 62.109,54.542 64.262,50.814 62.109,47.086  "></polygon><path d="M87.846,34.955l-12.279-1.167l-1.962,4.265l-7.26-12.573h-7.313L48.668,15.333l-0.79,4.392l-4.245-7.994l-0.838,5.527   l-4.343-7.945l-0.531,5.317L32.53,6.104l3.456,19.375h-2.331l-7.259,12.573l-1.962-4.265l-12.28,1.167L5.03,47.326l5.155,11.206   l9.349-0.889l9.502,16.459l-0.667,1.068l-0.784,1.256l0.784,1.255L37.8,92.782l0.695,1.113h1.313h20.383h1.313l0.696-1.113   l9.431-15.101l0.784-1.255l-0.784-1.256l-0.668-1.068l9.503-16.459l9.349,0.889l5.155-11.206L87.846,34.955z M20.075,52.17   l-6.587,0.627l-2.765-6.012l3.821-6.636l6.587-0.626l2.765,6.011L20.075,52.17z M58.422,88.906H41.577l-7.794-12.479l7.794-12.481   h16.845l7.795,12.481L58.422,88.906z M67.027,67.801L62.2,60.071l-0.696-1.115h-1.313H39.809h-1.313L37.8,60.071l-4.829,7.729   l-5.667-15.26L37.663,35.96h9.331L50,42.967l3.007-7.007h9.824l9.865,16.581L67.027,67.801z M86.512,52.797l-6.587-0.627   l-3.821-6.636l2.766-6.011l6.587,0.626l3.82,6.636L86.512,52.797z"></path></g><polygon points="62.342,77.235 61.271,75.123 55.974,77.808 44.271,77.808 39.351,75.139 38.221,77.221 43.97,80.177 56.257,80.177   "></polygon></svg>